<?xml version="1.0" standalone="no"?>
<!DOCTYPE svg PUBLIC "-//W3C//DTD SVG 20010904//EN"
 "http://www.w3.org/TR/2001/REC-SVG-20010904/DTD/svg10.dtd">
<svg version="1.0" xmlns="http://www.w3.org/2000/svg"
 width="678.000000pt" height="678.000000pt" viewBox="0 0 678.000000 678.000000"
 preserveAspectRatio="xMidYMid meet">
<metadata>
Created by potrace 1.11, written by Peter Selinger 2001-2013
</metadata>
<g transform="translate(0.000000,678.000000) scale(0.100000,-0.100000)"
fill="#000000" stroke="none">
<path d="M1967 6404 c-1 -1 -49 -4 -107 -8 -377 -22 -747 -159 -1065 -396 -81
-60 -103 -79 -214 -191 -488 -486 -684 -1205 -515 -1884 73 -292 230 -594 422
-811 130 -147 2644 -2655 2691 -2685 122 -78 282 -83 411 -13 62 34 2702 2676
2782 2784 90 122 148 218 209 345 53 108 131 321 142 385 3 14 9 43 15 65 11
40 17 80 30 190 9 76 9 369 0 455 -13 131 -58 317 -110 460 -174 480 -539 881
-1009 1108 -166 81 -407 155 -574 176 -125 16 -162 18 -287 18 -168 -1 -222
-7 -444 -48 -52 -10 -207 -58 -289 -91 -197 -78 -466 -241 -571 -347 -68 -69
-85 -79 -110 -65 -13 7 -24 16 -24 21 0 12 -186 157 -275 214 -322 205 -651
305 -1043 317 -35 2 -64 2 -65 1z m233 -415 c8 -1 34 -5 58 -10 23 -5 59 -12
80 -15 52 -8 255 -76 327 -110 89 -42 197 -105 190 -112 -3 -3 -106 -31 -228
-62 l-222 -56 -181 60 -180 59 -115 -58 -114 -59 -260 -2 -260 -3 -207 -43
c-113 -24 -203 -39 -200 -33 4 6 27 29 52 51 235 211 527 346 840 389 77 11
331 13 420 4z m2780 -4 c0 -1 -11 -5 -25 -7 -16 -3 -25 -1 -25 7 0 8 9 10 25
7 14 -2 25 -6 25 -7z m-738 -187 l107 -53 0 -60 0 -60 -227 -112 -227 -112
-112 -225 c-62 -123 -113 -228 -113 -232 0 -13 103 -114 115 -114 6 0 61 25
121 55 99 51 120 67 224 171 l116 115 111 -2 110 -2 57 -114 56 -113 61 0 60
0 117 116 c107 106 126 120 226 170 l110 55 53 -53 c29 -29 53 -55 53 -58 0
-3 -33 -22 -72 -40 -40 -19 -90 -45 -110 -57 -37 -22 -38 -25 -38 -78 0 -30 3
-55 8 -56 4 0 29 -1 55 -2 48 -2 66 -15 67 -47 0 -8 16 -78 36 -155 20 -77 40
-156 44 -175 5 -19 14 -55 20 -80 6 -25 13 -52 15 -60 2 -8 11 -44 20 -80 9
-36 18 -72 20 -80 2 -8 11 -44 20 -80 9 -36 19 -74 21 -84 11 -60 33 -90 137
-193 l112 -113 216 108 c119 59 222 112 230 119 11 9 15 38 14 122 0 60 -3
112 -5 114 -3 3 -52 28 -110 57 -58 29 -107 54 -109 56 -3 3 -5 29 -6 59 l-1
55 114 0 114 0 152 -101 c83 -56 150 -104 150 -108 -1 -3 -4 -31 -8 -62 -3
-31 -10 -76 -15 -100 -6 -24 -12 -58 -15 -75 -10 -58 -77 -238 -122 -329 -100
-200 -151 -263 -538 -653 -198 -199 -363 -359 -367 -355 -4 5 -14 24 -22 43
-14 34 -13 38 38 150 50 111 55 119 166 230 104 104 120 125 171 225 51 100
56 116 55 171 l-1 62 -106 53 c-97 49 -114 62 -222 173 -109 112 -122 130
-174 236 -161 327 -167 339 -226 397 -57 56 -58 57 -117 57 l-60 1 -56 -58
-56 -57 -172 2 -172 3 0 53 c0 52 -2 56 -58 113 -58 58 -60 59 -115 59 -42 0
-101 -15 -229 -57 l-173 -58 -115 -115 -116 -116 -57 -174 -58 -175 0 -171 1
-172 58 -114 57 -113 115 -58 c158 -78 186 -78 343 0 l114 56 58 -59 c52 -51
74 -88 173 -287 l114 -228 -33 -127 c-19 -70 -36 -136 -38 -147 -2 -11 -9 -40
-16 -65 -7 -25 -14 -56 -17 -69 -2 -14 -6 -28 -9 -32 -2 -5 23 -62 56 -129 33
-66 62 -128 63 -137 2 -10 12 -53 22 -96 l19 -78 -560 -560 -560 -560 -52 51
c-29 28 -52 55 -52 59 0 5 44 82 98 172 86 142 114 202 215 455 101 255 124
322 177 534 34 133 60 243 58 245 -21 21 -310 144 -433 184 l-161 53 1 115 c1
88 -2 117 -13 126 -8 7 -170 89 -360 184 l-345 172 -91 -47 c-50 -25 -103 -52
-118 -59 -27 -12 -31 -8 -261 223 -129 129 -238 234 -243 234 -5 0 -34 -25
-64 -56 l-54 -55 -59 117 -59 117 119 119 118 118 240 0 240 0 115 175 115
175 250 188 c138 103 325 237 417 297 92 61 167 113 168 117 0 4 -26 60 -57
124 l-57 115 -124 60 -125 59 -116 0 -117 0 -54 -167 c-29 -93 -56 -171 -60
-176 -15 -18 -127 120 -174 213 -26 52 -52 99 -57 105 -17 18 -9 34 50 92 59
57 61 59 237 117 177 58 179 59 294 58 105 0 120 2 167 26 l53 27 83 -83 c45
-45 86 -82 91 -82 4 0 68 60 141 133 199 198 261 253 365 322 93 62 206 124
225 125 5 0 58 -24 117 -52z m-3321 -837 l58 -175 -21 -34 c-12 -19 -64 -98
-116 -176 -53 -77 -95 -145 -95 -151 0 -5 25 -88 56 -183 50 -151 95 -249 120
-260 4 -2 7 -8 7 -13 0 -5 38 -65 85 -133 80 -119 87 -132 143 -303 l58 -178
470 -237 c258 -131 472 -239 477 -240 4 -2 -20 -83 -52 -181 l-60 -177 60
-177 59 -178 119 -120 c98 -99 140 -152 238 -300 66 -99 122 -194 126 -211 5
-25 -135 110 -746 721 -1110 1111 -1141 1143 -1223 1265 -106 159 -175 310
-220 480 -14 52 -27 113 -31 135 -3 22 -9 60 -13 84 -13 71 -10 328 6 426 26
173 103 401 177 527 l26 45 116 -41 117 -41 59 -174z"/>
</g>
</svg>
