<?xml version="1.0" encoding="utf-8"?>
<!-- Generator: Adobe Illustrator 24.0.1, SVG Export Plug-In . SVG Version: 6.00 Build 0)  -->
<svg version="1.1" xmlns="http://www.w3.org/2000/svg" xmlns:xlink="http://www.w3.org/1999/xlink" x="0px" y="0px"
	 viewBox="0 0 2673 1008" style="enable-background:new 0 0 2673 1008;" xml:space="preserve">
<style type="text/css">
	.st0{opacity:0.5;stroke:#FFFFFF;stroke-miterlimit:10;}
	.st1{fill:#E27171;}
	.st2{fill:none;stroke:#E27171;stroke-width:20;stroke-miterlimit:10;}
	.st3{fill:none;stroke:#E27171;stroke-width:20;stroke-linecap:round;stroke-linejoin:round;stroke-miterlimit:10;}
	.st4{fill:none;stroke:#E27171;stroke-width:30;stroke-linecap:round;stroke-linejoin:round;stroke-miterlimit:10;}
	.st5{fill:#A4D9F4;stroke:#E27171;stroke-width:20;stroke-linecap:round;stroke-linejoin:round;stroke-miterlimit:10;}
	.st6{fill:#A4D9F4;stroke:#E27171;stroke-width:30;stroke-linecap:round;stroke-linejoin:round;stroke-miterlimit:10;}
	.st7{fill:#6FDD9B;}
	.st8{fill:#66CC99;}
	.st9{fill:none;stroke:#707070;stroke-miterlimit:10;}
	.st10{fill:none;stroke:#92D8E8;stroke-width:20;stroke-linecap:round;stroke-linejoin:round;stroke-miterlimit:10;}
	.st11{fill:#E0DCDC;}
	.st12{fill:#707070;}
	.st13{fill:none;stroke:#707070;stroke-width:20;stroke-linecap:round;stroke-linejoin:round;stroke-miterlimit:10;}
	.st14{fill:none;stroke:#6FDD9B;stroke-width:20;stroke-linecap:round;stroke-linejoin:round;stroke-miterlimit:10;}
	.st15{fill:#FF8357;}
	.st16{fill:none;stroke:#FF8357;stroke-width:20;stroke-linecap:round;stroke-linejoin:round;stroke-miterlimit:10;}
	.st17{fill:none;stroke:#8FC7FF;stroke-width:20;stroke-linecap:round;stroke-linejoin:round;stroke-miterlimit:10;}
	.st18{fill:#F2A28D;}
	.st19{fill:#FF8931;}
	.st20{fill:#FBAE30;}
	.st21{fill:none;stroke:#707070;stroke-width:10;stroke-linecap:round;stroke-linejoin:round;stroke-miterlimit:10;}
	.st22{fill:none;stroke:#000000;stroke-width:10;stroke-linecap:round;stroke-linejoin:round;stroke-miterlimit:10;}
	.st23{fill:none;stroke:#A3D8B8;stroke-width:20;stroke-miterlimit:10;}
	.st24{fill:#2CB76F;}
	.st25{fill:#5BD68C;}
</style>
<g id="Ebene_1">
	<g>
		<path class="st1" d="M455.8,232.8c30.5,0,61,8.7,87.5,26.2c8.8,5.8,17.2,12.6,25,20.4c0,0,0,0,0,0c0.5,0.5,1,1,1.4,1.5l8.5,8.5
			l17.2,17.1l25.7-25.7c0.5-0.5,1-1,1.4-1.5c0,0,0,0,0,0c13.7-13.7,29.3-24.4,46-32.1c21-9.7,43.8-14.5,66.5-14.5
			c4.6,0,9.2,0.2,13.8,0.6c2.3,0.2,4.6,0.4,6.9,0.7h0c33.6,4.4,66,19.4,91.8,45.3c34.4,34.4,49.8,80.6,46.1,125.6
			c-3,36.2-18.3,71.6-46.1,99.3c0,0,0,0,0,0c-0.5,0.5-1,1-1.5,1.5l-25.6,25.7l-33.2,33.2L707.7,644L595.4,756.4l-11.1-11.1l-62-62
			L370.4,531.4l-25.6-25.7c-0.5-0.5-1-1-1.5-1.5c0,0,0,0,0,0c-52.4-52.4-60.6-132.2-24.6-193.2c6.5-11.1,14.5-21.5,24-31.1
			c0.2-0.2,0.4-0.4,0.6-0.7C374.4,248.3,415.1,232.8,455.8,232.8 M455.8,202.8c-24.5,0-48.5,4.7-71.1,13.8
			c-23.5,9.5-44.5,23.5-62.6,41.5c-0.3,0.3-0.6,0.6-0.9,0.9c-11,11.1-20.5,23.5-28.4,36.8c-10.6,17.9-18,37.3-22.2,57.7
			c-4.1,20.1-5,40.5-2.5,60.9c2.5,20.6,8.3,40.4,17.2,59c9.1,19,21.4,36.4,36.4,51.5c0.1,0.1,0.2,0.2,0.3,0.3
			c0.6,0.6,1.2,1.2,1.8,1.8l25.5,25.6l151.9,151.9l62,62l11.1,11.1c5.9,5.9,13.5,8.8,21.2,8.8c7.7,0,15.4-2.9,21.2-8.8l112.4-112.4
			l79.4-79.4l33.2-33.2l25.5-25.6c0.5-0.5,1-1,1.6-1.6c0.2-0.2,0.3-0.3,0.5-0.5c31.3-31.6,50.6-73.3,54.2-117.6
			c4.6-55.5-15.4-109.9-54.7-149.3c-15-15-32.2-27.3-51.1-36.4c-18.3-8.9-37.8-14.7-58.1-17.4c-0.1,0-0.2,0-0.3,0
			c-2.8-0.4-5.4-0.6-8-0.9c-5.4-0.5-10.9-0.7-16.3-0.7c-27.1,0-54.5,6-79,17.3c-20.1,9.3-38.3,21.9-54.1,37.6
			c-0.1,0.1-0.2,0.2-0.3,0.3c-0.6,0.6-1.2,1.2-1.8,1.8l-4.3,4.3l-4.3-4.3c-0.5-0.6-1.1-1.1-1.6-1.7c-0.2-0.2-0.3-0.3-0.5-0.5
			c-8.9-8.8-18.7-16.8-29.1-23.7C528.9,213.6,493,202.8,455.8,202.8L455.8,202.8z"/>
	</g>
	<path class="st8" d="M639.9,604.8L628,652.4L604.2,712l-20,33.3l-62-62l-1.4-7.1L497,640.5l-23.8-23.8L461.3,581l11.9-35.7
		L378,497.6l-11.9-35.7l-23.8-35.7l-11.9-35.7l23.8-35.7L342.2,319l-23.6-7.9c6.5-11.1,14.5-21.5,24-31.1l46.6-9.3h47.6l23.8-11.9
		l35.7,11.9l46.9-11.7c8.8,5.8,17.2,12.6,25,20.4c0,0,0,0,0,0c0.5,0.5,1,1,1.4,1.5l8.5,8.5l-10.4,5.2H544l-35.7,11.9l-11.9,11.9
		l12.6,24.5l11.9,11.9l11.9-35.7h23.8c-1.3,0,23.8,11.9,23.8,11.9l11.9,23.8l-35.7,23.8l-47.6,35.7L485.1,450h-47.6l-23.8,23.8
		l11.9,23.8l11.9-11.9l23.8,23.8l23.8,23.8l23.8-11.9l23.8,11.9l23.8,11.9l23.8,11.9V581l35.7,11.9L639.9,604.8z"/>
	<path class="st8" d="M893.5,405l-30.1-20.1h-22.9v11.5l22.9,11.5v22.9l-22.9,11.5l-22.9,11.5l-22.9-22.9l-11.5-45.9l-11.5-45.9
		h-11.5v-11.5l22.9-11.5l-11.5-11.5l-22.9,11.5l-22.9,22.9h-11.5l-11.5-22.9h-22.9L657,339.1L634,350.5l-11.5-11.5l11.5-22.9
		l11.5-22.9l45.9-22.9v-11.5l-22.9-11.5v0c25.3-11.6,53-16.3,80.3-13.9v2.5l6.9-1.7h0c33.6,4.4,66,19.4,91.8,45.3
		C881.8,313.8,897.2,360,893.5,405z"/>
	<path class="st8" d="M827.7,475.4v11.5l-11.5,22.9l-22.9,22.9l-10.2,22.9l4,9L707.7,644l-4.9-19.5l-11.5-22.9l11.5-45.9l-11.5-22.9
		l-11.5-22.9l-11.5-11.5l-22.9,11.5H634l-22.9-11.5l-11.5-22.9V441l11.5-34.4l22.9-22.9l34.4-11.5h11.5l11.5,11.5v11.5h34.4
		l11.5-11.5h11.5l11.5,11.5c0,0,12.7,22.9,11.5,22.9c-1.3,0,11.5,22.9,11.5,22.9l21.7,22.9L827.7,475.4z"/>
	<path class="st10" d="M255.9,458.1c-19.3,17.7-58.8,61.2,0,96.3c63.4,37.8,205.8,44.8,274.1,48.1
		C973.6,624.2,2295.9,461.2,2466,440"/>
	<g>
		<path class="st19" d="M1068.6,537.5c-4.3,0.4-8.6,0-13-1.4c-4.3-1.4-8.1-3.4-11.2-6.1c-1.1-1.1-1.8-3.1-2.1-6.1
			c-0.3-3.2-0.2-6.4,0.5-9.9c0.5-3.1,1.4-4.7,2.8-4.8c0.7-0.1,1.7,0.3,3,1.1c1.3,0.8,2.6,1.8,3.7,3c3.6,2.5,6.9,3.6,9.9,3.3
			c6-0.6,11.7-6.4,17.3-17.4l5-15.1c7.2-21.3,11.2-33.8,12-37.4c0-0.2,0-0.5,0.1-1c0.1-0.5,0.4-1.1,0.8-1.8c0.1-0.7,0.4-2.1,0.9-4.4
			c0.5-2.2,0.9-4.5,1.2-6.9l7.4-30.7c0.3-3.4,0.9-7.1,1.7-11.1c0.8-4,1.6-7.4,2.3-10.2c0.5-1.4,2.3-8.8,5.3-22.2l2.4-11.3
			c1.2-6,2.2-11.2,3-15.8c0.8-4.5,1-7,0.6-7.5l-13.7,3.9c-3.5,1.9-6.5,2.9-9,3.2c-2.5,0.3-3.6-0.5-3.3-2.4l-0.3-2.7
			c-0.6,0.7-1.8,0-3.5-2.3c-1.7-2.2-2.6-4.1-2.6-5.6c-0.1-1.3,1.7-3.1,5.5-5.2s8.2-3.8,13.1-5l12.3-2.8c1.5-0.3,4.8-1,9.8-2
			c0.8-0.7,3.5-0.4,8.2,1c4.7,1.4,7.7,2.8,9.2,4c1.5,1.7,2.4,3.4,2.6,5.3c0.2,2.3-0.1,5.7-1.1,10c-1,4.4-3.3,13.5-6.8,27.5l-5.8,24
			c-2.7,12.5-4.9,21.4-6.6,26.6c-0.4,2.2-1.1,5-1.9,8.2c-2,8.4-3.4,15.1-4.2,20c-1.5,4.8-3,11.4-4.5,19.6c0.1,1.3,0,2.9-0.5,4.6
			c-0.5,1.7-1.1,3-1.9,4l-4.5,15.3l-1.6,6.2c-0.2,1-0.9,3.4-1.9,7c-1.1,3.6-2.1,6.3-3.1,8.1c-0.4,1.4-1.1,3.2-2.2,5.5
			c-1.1,2.3-1.6,3.7-1.6,4.2c0,0.2,0,0.5-0.2,0.9c-0.1,0.4-0.4,0.7-0.9,0.7c-0.2,0.2-0.4,0.5-0.8,1c-0.4,0.5-0.5,1-0.5,1.7
			c-0.6,2.1-3.4,6.3-8.4,12.8c-4.9,6.5-8.7,10.6-11.2,12.3C1077,535.6,1073,537,1068.6,537.5z"/>
		<path class="st19" d="M1153.8,465.1c-2.5-1.4-3.8-2.3-3.8-2.6c-0.1-0.7-0.5-1.6-1.4-2.7c-0.9-1.2-1.7-2.2-2.5-3.1
			c-1.5-1.2-1-5.6,1.4-13.2c2.4-7.6,5.7-16.7,10-27.2c0.9-1.1,2-3,3.3-5.6c1.3-2.6,2.2-4.2,2.7-4.5c-0.1-0.7,0.1-1.3,0.6-1.9
			c0.4-0.6,1-1,1.7-1.1l1.6-4.2c0.5-1.6,3.4-5.5,8.6-11.7c5.2-6.2,9.4-10.5,12.5-12.9c2.9-2.5,6.2-3.9,9.9-4.3
			c4-0.4,7.5,0.4,10.6,2.4l7.3,5c5.4,3.6,8.5,5.7,9.2,6.3l10,7.3l-2.9,12.9c-1,4.6-1.3,8.9-0.9,12.9c0.7,6.3,3,12,7,17.1
			c1,1.7,2.3,3,3.8,3.9c1.5,0.8,3.4,1.3,5.8,1.4c3.7,0.3,5.7,1.9,6,4.9c0.4,3.6,0,6.5-1.1,8.4c-1.1,2-2.6,3.3-4.4,4
			c-2.6,0.6-4.4,1-5.4,1.1c-4.8,0.5-9.3-0.3-13.6-2.4c-4.2-2.1-8.2-5.9-11.8-11.6c-0.8-0.9-1.8-2.7-3.2-5.2
			c-1.4-2.5-2.2-4.3-2.4-5.3c-1,1.8-2.7,4.1-5.1,7.1c-15.3,19-28.3,29.1-38.9,30.2c-3.6,0.4-7-0.2-10-1.7
			C1157.9,467.7,1156.3,466.5,1153.8,465.1z M1184.5,436.1c0.8-0.7,1.6-1.6,2.5-2.6c0.9-1,1.9-2.1,2.9-3.2c4.2-4.3,7.5-7.9,9.8-10.7
			c2.3-2.8,4.6-6.2,6.9-10.1l4.5-9.5c-2-3.5-3.8-5.8-5.2-6.9c-1.5-1.1-2.8-1.6-4.2-1.5c-3.3,0.3-7.2,3.7-11.5,10.1
			c-4.4,6.4-9.4,15.9-15.1,28.6c-1.5,3.2-2.7,6.4-3.5,9.8c-0.8,3.4-1.4,5.5-1.6,6.6C1172.7,446.7,1177.5,443.2,1184.5,436.1z"/>
		<path class="st19" d="M1276.6,463c-4.4-1.2-8.2-2.9-11.3-5c-3.2-2.1-4.8-4.2-5-6.1s0.6-3.3,2.4-4l1.1-1.1c0.3-0.2,1-0.4,2-0.5
			c0.6-0.2,1.5-0.3,2.5-0.1s1.9,0.2,2.5,0.1c1.2,0.2,3,0.4,5.3,0.5l6.5,0.1c3.3-0.3,6.4-1,9.2-2c2.8-1,4.2-1.9,4.1-2.7
			c-0.1-0.5-0.8-1.3-2.2-2.3c-1.4-1-2.9-1.5-4.4-1.3c-0.1-0.7-2.9-2.6-8.4-5.9c-3-1.9-6-3.7-8.7-5.6c-2.8-1.9-4.2-3.3-4.3-4.3
			l0.2-0.5l-0.1-1.2c-1.2,0.1-2.4-1.3-3.7-4.4c-1.3-3-2.1-6.1-2.4-9c-0.6-5.6,1.3-12.1,5.5-19.4c4.3-7.3,9.8-14.1,16.6-20.3
			c6.8-6.2,13.4-10.7,19.9-13.4c2.4-1.4,6-2.4,10.8-2.9c3.1-0.3,5.3-0.2,6.6,0.3l1.9-0.7c2-0.2,4.7,1.2,8.2,4.2
			c3.5,3,5.8,5.4,6.8,7.3c0.6,5.5,0.9,9.9,0.9,13.2c0,3.4-0.6,5.1-2,5.2c-0.2,0-0.4,0.1-0.7,0.3c-0.3,0.2-0.4,0.6-0.4,1.3
			c0.2,2.3-1.5,5.1-5.3,8.3c-3.8,3.2-7.3,5-10.6,5.4l-1-0.1c-1-0.1-2.6-0.9-4.7-2.5c-2.1-1.6-3.2-3.3-3.4-5.2
			c-0.1-0.5,0.8-1.9,2.6-4.3c1.8-2.4,3.2-4.6,4.4-6.9c1.2-2.2,1.7-4.5,1.4-6.8c-0.1-0.8-0.4-1.3-1-1.5c-0.6-0.2-1.7-0.2-3.4,0
			c-8.7,5.1-14.8,9.7-18.4,13.7c-0.4,1-0.8,1.8-1.1,2.4c-0.4,0.5-0.9,0.8-1.5,0.9c0-0.2-0.1-0.2-0.3-0.2c-0.3,0-1.3,1.1-2.9,3.2
			c-1.6,2.1-3.1,4.5-4.4,7.1c-1.3,2.6-2,5.1-2.1,7.3l-0.4,0.8l0.1,1.2c-0.1,0.4-0.1,1,0,2c0.2,1.5,1,3,2.5,4.4
			c1.5,1.4,4.4,3.4,8.6,5.8c8,4.9,13.6,8.5,16.6,11c3,2.5,5,4.7,5.9,6.8c1.8,2.8,2.8,5.4,3.1,7.7c0.6,5.6-1.9,10.3-7.5,14
			c-5.6,3.7-13.4,6-23.5,7.1C1285.2,464.6,1281,464.2,1276.6,463z"/>
		<path class="st19" d="M1461.4,435.1c-2.5,0.3-5-0.2-7.4-1.2c-2.5-1.1-4.2-2.9-5.1-5.5c-0.2-0.5-1.1-2-2.6-4.5
			c-1.5-2.5-2.5-5.5-2.8-9c-0.2-1.5-0.2-2.7-0.1-3.5l0.4-7.8c0-3.2,0.1-5.1,0.4-5.8l-0.2-2.2c-0.3-2.8-0.7-4.2-1.2-4.2
			c-1.3,0.1-4.5,3.6-9.4,10.3c-4.9,6.7-9.1,13.3-12.4,19.6c-1,1.6-2.1,3.9-3.2,7c-1.1,3-1.8,4.7-2.1,4.9c-0.6,0.7-1.6,1.2-2.9,1.3
			c-1.5,0.2-3.2-0.2-5.1-1c-1.9-0.8-3.4-1.9-4.4-3.3c-0.4-0.6-1.1-1.2-2.2-1.7c-1.1-0.5-1.7-1.5-1.8-3.2c-0.3-2.8,0.3-7.6,1.8-14.3
			c1.3-5.7,2.3-10.5,3.1-14.6c0.8-4.1,1.3-6.8,1.5-8.2c-0.1-1.2-4,2.3-11.5,10.2c-8,11.6-15.1,22.5-21.2,32.9
			c-3,5.2-5.4,8.9-7.1,11.2c-1.8,2.3-3.4,3.5-4.9,3.6c-1.2,0.1-2.5-0.5-4-1.9c-0.7-0.6-1.9-1.3-3.6-2.1c-1.7-0.8-2.6-1.6-2.6-2.2
			c-0.1-1.3-0.6-1.9-1.5-1.9c-1.1-0.9,0-6.5,3.4-16.8c3.4-10.3,6.5-18.3,9.5-24c0.6-0.6,1-1.3,1.3-2.3c0.2-0.9,0.2-1.4-0.1-1.4
			c0.3-0.5,0.7-1.4,1.2-2.6c0.5-1.2,1.1-2.3,1.7-3.2c2.3-5.8,3-10.3,2.1-13.5c-0.7-0.6-1.5-0.8-2.2-0.5c-0.7,0.2-1.2,0.5-1.3,0.6
			c-0.3,0.2-1.2,0.6-2.5,1.1c-1.4,0.6-2.5,1.2-3.4,2c-3.7,3.1-6.3,4.7-7.8,4.8c-1.8,0.2-3.8-1.6-5.8-5.4c-0.7-1.4-1-2.8-1.2-4.2
			c-0.2-2.2,0.3-3.9,1.5-5.2c1.2-1.3,2.8-2.7,4.8-4.3c2-1.5,3.2-2.5,3.5-2.9c1.7-1.2,4-2.5,6.7-4.1c2.8-1.5,4.9-2.6,6.3-3.3
			c1.9-0.9,3.9-1.4,5.9-1.6c5.5-0.6,9.6,1.7,12.5,6.8c2.6,2.6,4.1,5.4,4.4,8.6c0.3,2.8-0.5,6.8-2.3,12l-2.1,4
			c-0.4,1-0.6,1.7-0.5,2.1c0,0.3,0.1,0.5,0.3,0.5c0.7-0.1,1.3-0.7,2.1-2c0.7-0.9,1.7-2.1,2.9-3.4c1.2-1.4,2-2.1,2.5-2.1
			c0.2,0,0.4-0.2,0.7-0.5c0.3-0.3,0.4-0.9,0.3-1.9l2.3-2.5c0.5-0.1,1.4-0.6,2.6-1.7c1.2-1,2.9-2.6,5-4.7c1.7-1.5,3.3-2.3,4.8-2.5
			c0.5-0.2,1.2-0.4,2.2-0.5c3.1-0.3,5.9,1.1,8.2,4.3c2.3,3.2,3.8,7.4,4.3,12.7l-3.8,14l7.8-11.9c1.3-2,3.1-4.2,5.4-6.6
			c0.2-1,0.6-1.7,1.2-2c0.6-0.3,0.9-0.5,1.1-0.5c0.2,0,0.4-0.1,0.6-0.3c0.2-0.2,0.3-0.5,0.3-0.8c0.6-0.6,1.4-1.3,2.4-2.1
			c1-0.9,1.6-1.6,1.9-2.1c1.4-0.8,3.4-1.4,5.9-1.6c2.7-0.3,5.2,0,7.6,0.8c2.4,0.8,4.3,2.4,5.7,4.6c0.6,0.8,1.4,1.8,2.5,3.1
			c1.1,1.3,1.9,2.6,2.4,3.8c0.5,1.2,0.9,2.7,1.1,4.5l-0.4,5.6c0-0.2-0.1,2.7-0.4,8.6c-0.6,1.9-0.8,4.8-0.4,8.6
			c0.2,2.3,0.5,3.8,0.8,4.4c0.3,0.6,1,0.9,2,0.8c2.1-0.7,3.9-1.7,5.4-2.8c1.5-1.2,3.2-2.8,5.1-5.1c1.2-1.5,2.4-2.3,3.8-2.4
			c1.5-0.2,2.8,0.3,4,1.5c1.2,1.1,2.1,2.5,2.8,4.1c0.6,0.9,0,3.7-1.8,8.2c-1.8,4.5-3.3,6.9-4.4,7c-0.3,0-1.2,0.8-2.5,2.1
			c-1.4,1.4-2.5,2.5-3.4,3.2c-2.5,3.4-4.7,5.3-6.5,5.4c-0.7,0.1-1.5,0.4-2.5,0.9c-1,0.5-2,0.8-2.8,0.9
			C1463.5,434.8,1462.7,435,1461.4,435.1z"/>
		<path class="st19" d="M1509.8,431.1c-3.3-3.8-5.6-8.8-6.9-14.9c0-6.2,0.1-10.7,0.1-13.6c1-8.3,2.3-18.1,3.9-29.4
			c1.6-11.3,2.6-17.6,3-18.8c0.7-1.6,1.9-2.5,3.7-2.6c1.8-0.2,3.9,0.3,6.3,1.5c2.4,1.2,4.5,2.9,6.2,5.3c1.5,1.7,2.4,3.7,2.6,6
			c0.4,3.5-0.5,11-2.7,22.4c-1.5,8.5-2.4,14.6-2.7,18.1c-0.3,3.5-0.2,7.3,0.4,11.3c0.1,7.5,0,12.7-0.4,15.6
			c-0.4,2.9-1.2,4.3-2.6,4.3C1516.8,436.7,1513.2,435,1509.8,431.1z M1531.6,331.6c-0.7,0.1-1.8-0.3-3.4-1.2c-1.7,0-4-1.2-7-3.5
			c-3-2.4-4.6-4-4.6-4.8c-0.4-2-0.5-4.8-0.4-8.6c0.1-3.8,0.7-7.2,1.8-10.4c1.1-3.1,2.8-4.9,5.1-5.3c1.2,0,2.8,0.3,4.8,0.6
			c2,0.4,4.4,0.9,7,1.7c3.8,6,5.9,11.2,6.4,15.7c0.7,6.6-2.1,11.6-8.3,14.9C1532.6,331.3,1532.1,331.6,1531.6,331.6z"/>
		<path class="st19" d="M1621.1,416.6c-2.6-1.1-4.8-2.9-6.6-5.4l-1.5-2.4c-2.6-5.4-4.1-10.8-4.7-16.1l-1.1-10.9
			c-0.2-1.8-0.5-2.7-0.8-2.7c-1.3,0.1-6.5,6.1-15.5,17.9c-6.4,8.2-11.9,14.6-16.7,19.2c-4.8,4.6-8.2,7-10.2,7.2
			c-0.7,0.1-2.3-0.4-4.9-1.4c-2.6-1-4.3-1.8-5-2.4c-1.3-1-2.2-2.4-2.7-4c-0.5-1.6-1-4.8-1.5-9.4c-0.5-5.3-0.1-11.4,1.4-18.4
			c1.5-6.9,4.2-16.3,8.2-28.1c1.1-2.5,2.1-5.4,3.1-8.9c2.9-9,5.9-15.3,8.8-19c1.3-0.1,2.2-0.1,2.8,0c2.2-0.1,4.8,0.7,7.9,2.2
			c3.1,1.5,5.1,3.7,6.1,6.7c0.3,2.8,0.2,5.7-0.4,8.6c-0.5,2.9-2.1,6.6-4.6,11c-1.6,2.7-3.4,8.3-5.5,16.9c-0.7,1.4-1.6,3.6-2.7,6.4
			c-1.1,2.9-1.7,4.5-1.6,4.8c0.2,0.1,0.6-0.3,1.4-1.3c0.7-1,1.5-2,2.2-2.9l6-7.4c11.7-14.4,21.2-22.2,28.3-23.3
			c3.6-0.4,7.1,1.2,10.3,4.7c3.2,3.5,5.1,7.9,5.6,13.2c0.1,1,0.2,3.8,0.4,8.5l1.5,14.2c3.7-1.4,6.5-2.6,8.4-3.6
			c4-1.9,8.2-3.3,12.6-4.1c0,2.9-1.2,6.7-3.4,11.7c-2.3,4.9-5,9.3-8.3,13.2c-3.3,3.9-6.4,5.9-9.4,6.2
			C1626.3,418.1,1623.7,417.7,1621.1,416.6z"/>
		<path class="st19" d="M1670.5,303.1c-2.1-3.1-2.9-5.7-2.5-7.9c0.1-4.4,0.9-9.6,2.7-15.6l1.2-5.4c0.9-6,5.1-14.1,12.6-24.4
			c0-0.3,0.2-0.6,0.7-0.9c0.5-0.3,1.1-0.6,2-1c0.9-0.3,1.9-0.7,3-1.2l3.7-0.6c4-0.4,6.5,1,7.5,4.3l0.1,1c0.2,1.5-0.5,3.4-1.9,5.7
			l-2.5,4.8c-0.6,1.1-1.8,3.6-3.7,7.7c-1.9,4.1-3.1,7.2-3.6,9.4c0.1,0.7,0,1.3-0.1,1.8c2.8-0.8,5.8-0.1,9,2.1
			c2.2,1.6,3.4,4.1,3.8,7.4c0.3,2.8-0.2,5.8-1.6,8.8c-1.4,3.1-3.3,5.7-6,8c-3.1,2.3-6.1,3.6-8.9,3.9c-2,0.2-4.6-0.1-7.9-0.9
			C1675.2,308.4,1672.6,306.1,1670.5,303.1z"/>
		<path class="st19" d="M1707.8,418.5c-4.4-1.2-8.2-2.9-11.3-5c-3.2-2.1-4.8-4.2-5-6.1s0.6-3.3,2.4-4l1.1-1.1c0.3-0.2,1-0.4,2-0.5
			c0.6-0.2,1.5-0.3,2.5-0.1s1.9,0.2,2.5,0.1c1.2,0.2,3,0.4,5.3,0.5l6.5,0.1c3.3-0.3,6.4-1,9.2-2c2.8-1,4.2-1.9,4.1-2.7
			c-0.1-0.5-0.8-1.3-2.2-2.3c-1.4-1-2.9-1.5-4.4-1.3c-0.1-0.7-2.9-2.6-8.4-5.9c-3-1.9-6-3.7-8.7-5.6c-2.8-1.9-4.2-3.3-4.3-4.3
			l0.2-0.5l-0.1-1.2c-1.2,0.1-2.4-1.3-3.7-4.4c-1.3-3-2.1-6.1-2.4-9c-0.6-5.6,1.3-12.1,5.5-19.4c4.3-7.3,9.8-14.1,16.6-20.3
			c6.8-6.2,13.4-10.7,19.9-13.4c2.4-1.4,6-2.4,10.8-2.9c3.1-0.3,5.3-0.2,6.6,0.3l1.9-0.7c2-0.2,4.7,1.2,8.2,4.2
			c3.5,3,5.8,5.4,6.8,7.3c0.6,5.5,0.9,9.9,0.9,13.2c0,3.4-0.6,5.1-2,5.2c-0.2,0-0.4,0.1-0.7,0.3c-0.3,0.2-0.4,0.6-0.4,1.3
			c0.2,2.3-1.5,5.1-5.3,8.3c-3.8,3.2-7.3,5-10.6,5.4l-1-0.1c-1-0.1-2.6-0.9-4.7-2.5c-2.1-1.6-3.2-3.3-3.4-5.2
			c-0.1-0.5,0.8-1.9,2.6-4.3c1.8-2.4,3.2-4.6,4.4-6.9c1.2-2.2,1.7-4.5,1.4-6.8c-0.1-0.8-0.4-1.3-1-1.5c-0.6-0.2-1.7-0.2-3.4,0
			c-8.7,5.1-14.8,9.7-18.4,13.7c-0.4,1-0.8,1.8-1.1,2.4c-0.4,0.5-0.9,0.8-1.5,0.9c0-0.2-0.1-0.2-0.3-0.2c-0.3,0-1.3,1.1-2.9,3.2
			c-1.6,2.1-3.1,4.5-4.4,7.1c-1.3,2.6-2,5.1-2.1,7.3l-0.4,0.8l0.1,1.2c-0.1,0.4-0.1,1,0,2c0.2,1.5,1,3,2.5,4.4
			c1.5,1.4,4.4,3.4,8.6,5.8c8,4.9,13.6,8.5,16.6,11c3,2.5,5,4.7,5.9,6.8c1.8,2.8,2.8,5.4,3.1,7.7c0.6,5.6-1.9,10.3-7.5,14
			c-5.6,3.7-13.4,6-23.5,7.1C1716.4,420.1,1712.2,419.7,1707.8,418.5z"/>
	</g>
	<g>
		<path class="st19" d="M1397.3,636.1c0.2,2.2-0.6,3.8-2.5,5c-1,0.4-2.8,1.3-5.6,2.5c-2.8,1.2-5.1,1.9-6.9,2.1
			c-1.5,0.2-2.7,0.1-3.5-0.1c-1.8-1.3-3.9-2.2-6.3-2.6c-2.4-0.4-7.3-0.5-14.6-0.2c-2.1,0.6-4,0.9-5.7,1.1c-1.7,0.2-3,0.4-4,0.7
			c-0.9,4.5-2.1,8.7-3.7,12.7c-0.3,3.2-1,6.1-1.9,8.7c-0.8,3.4-1.1,5.4-0.9,5.9c-0.4,0.7-1.6,5.1-3.4,13.1c-1.8,8-3.5,15.7-5.1,23.3
			c-1.1,5.3-2,9.2-2.6,11.6c-0.7,1.7-1.4,4.5-2.3,8.2c-0.9,3.7-1.5,6.3-1.8,7.9l-4.4,17.8c-1.1,2.6-2.3,6.7-3.6,12.3
			c-1.3,5.6-2.4,10.6-3.1,15c-1.1,6.7-2.3,11.5-3.4,14.4c-1.1,3-2.1,4.8-3.1,5.6c-0.9,0.8-2.3,1.2-4.1,1.4c-2.7,0.3-5.1-0.8-7.4-3.3
			c-2.3-2.4-3.5-4.8-3.8-7.1c-0.4-3.6,0.3-9.9,1.9-18.8c1.7-8.9,3.4-16,5.2-21.4c0.3-3.1,0.7-5.5,1.1-7.4c0.4-1.9,0.6-3.2,0.7-4.1
			c0.4-0.7,1-2.6,1.8-5.6c0.8-3,1.4-5.8,1.8-8.4c0.2-3,3.6-20.2,10.2-51.6l1.2-5.4c1.2-2.6,2.3-5.9,3.2-9.9c1.2-1,1.7-2.8,1.4-5.4
			c-0.1-0.5,0.2-1.2,0.7-2.1c0.5-0.9,0.7-1.5,0.7-1.8c0.1-0.2,0.4-0.3,0.7-0.3c0.2,0,0.4,0,0.6,0.1c0.3,0.1,0.7-0.3,1.3-1l-0.2,0
			l-12.1,2.5l-5.4,1.1c-9.7,1.9-15.2,3-16.5,3.5l-3.5,0.6c-5.1,0.5-8.9-0.1-11.1-2c-2.3-1.9-3.2-4.1-2.9-6.9
			c0.3-2.2,1.4-4.1,3.3-5.6c1.9-1.5,5.2-3.1,10-4.6c1.5-0.5,4.3-1.3,8.5-2.4l6.6-1.9l8.4-1.9c9.5-2.5,19.5-4.6,30.3-6.2
			c4.5-0.6,8.2-1.2,11.2-1.8c3-0.6,5-1,6-1.3c2.3-0.1,6.2-0.1,11.4,0.1c5.3,0.1,9.1,0.5,11.5,1.1c3.7,0.5,6.9,1.6,9.4,3.5
			c2.5,1.9,4.4,4.2,5.5,7C1397.1,634.3,1397.2,635.1,1397.3,636.1z"/>
		<path class="st19" d="M1364.9,770.7c-1.5-1.5-2.2-3.8-2-6.8c-0.1-5.7,0.5-12.4,1.7-20l0.7-5.1c0-4.5,1.7-13.6,5.1-27.3
			c3.3-13.7,6.3-23,9-28c1.5-1.8,4.2-3,8.2-3.4c3.3-0.3,5.7,0.1,7.2,1.3c1.4,0.9,2.3,2.4,2.5,4.8c0.4,3.8-1.3,10.8-5.1,20.9
			l-1.9,5.5c-0.9,2.3-1.7,4.4-2.2,6.3c-0.6,1.9-0.4,2.7,0.4,2.5c1.5-3.3,5.5-8.1,11.9-14.3c6.5-6.2,11-10.1,13.5-11.7
			c1.1-0.8,2.5-1.6,4.3-2.5c1.8-0.9,2.9-1.5,3.6-1.9c2.8-1.8,6.1-2.9,10-3.3c2.6-0.3,5-0.1,7,0.4c2,0.5,3.4,1.5,4.2,3
			c0.3,1.1,0.8,2,1.7,2.6c0.8,0.6,1.4,0.9,1.7,1.1c0.5-0.1,0.8,0.1,1.1,0.5c0.2,0.4,0.3,0.7,0.3,0.8c0.1,1.3-0.8,3.1-2.9,5.5
			c-2.1,2.3-4.4,3.7-6.9,4.1c-1.8,0.4-3.7,1-5.6,1.8c-1.9,0.9-3.8,1.9-5.7,3.1l-6.1,4.4c-5.3,3.4-9.8,6.7-13.4,9.8
			c-3.6,3.1-7.2,7.1-10.7,11.8c-0.7,0.9-1.8,2.2-3.2,3.9c-1.4,1.7-2.6,3.5-3.6,5.7c-1,1.3-1.9,4.4-2.7,9.5c-0.7,5-1,8.1-0.9,9.3
			c-0.1,0.5-0.3,1.5-0.7,3.1c-0.3,1.5-0.9,3-1.8,4.2c-1.3,2-2.4,3.4-3.3,4.4c-0.9,0.9-1.9,1.5-3.1,1.6c-1.7,0.2-3.7-0.7-6.1-2.6
			C1368.4,773.8,1366.4,772.2,1364.9,770.7z"/>
		<path class="st19" d="M1456,763.9c-2.5-1.4-3.8-2.3-3.8-2.6c-0.1-0.7-0.5-1.6-1.4-2.7c-0.9-1.2-1.7-2.2-2.5-3.1
			c-1.5-1.2-1-5.6,1.4-13.2c2.4-7.6,5.7-16.7,10-27.2c0.9-1.1,2-3,3.3-5.6c1.3-2.7,2.2-4.2,2.7-4.6c-0.1-0.7,0.1-1.3,0.6-1.9
			c0.4-0.6,1-1,1.6-1.1l1.6-4.2c0.5-1.6,3.4-5.5,8.6-11.7c5.2-6.2,9.4-10.5,12.5-12.9c2.9-2.5,6.2-3.9,9.9-4.3
			c4-0.4,7.5,0.4,10.6,2.4l7.3,5c5.4,3.6,8.5,5.7,9.2,6.3l10.1,7.2l-2.9,12.9c-1,4.6-1.3,8.9-0.9,12.9c0.7,6.3,3,12,7.1,17.1
			c1,1.7,2.3,3,3.8,3.9c1.5,0.8,3.4,1.3,5.8,1.4c3.7,0.3,5.7,1.9,6,4.9c0.4,3.6,0,6.5-1.1,8.4c-1.1,2-2.6,3.3-4.4,4
			c-2.6,0.6-4.4,1-5.4,1.1c-4.8,0.5-9.3-0.3-13.6-2.4c-4.2-2.1-8.2-5.9-11.8-11.6c-0.8-0.9-1.8-2.7-3.2-5.2
			c-1.4-2.5-2.2-4.3-2.4-5.3c-1,1.8-2.7,4.1-5,7.1c-15.3,19-28.2,29.1-38.8,30.2c-3.6,0.4-7-0.2-10-1.7
			C1460,766.5,1458.5,765.4,1456,763.9z M1486.6,734.9c0.8-0.7,1.6-1.6,2.5-2.6c0.9-1,1.9-2.1,2.9-3.2c4.2-4.3,7.5-7.9,9.8-10.7
			c2.3-2.8,4.6-6.2,6.9-10.1l4.5-9.5c-2-3.5-3.8-5.8-5.2-6.9c-1.5-1.1-2.8-1.6-4.2-1.4c-3.3,0.3-7.2,3.7-11.5,10.1
			c-4.4,6.4-9.4,15.9-15.1,28.6c-1.5,3.2-2.7,6.4-3.5,9.8c-0.8,3.4-1.3,5.5-1.6,6.6C1474.8,745.5,1479.6,742,1486.6,734.9z"/>
		<path class="st19" d="M1589.5,754.8c-2.5,0.3-4.7-0.4-6.8-2.1c-3.7-3-7.1-8.9-10.3-17.8c-3.2-8.9-5.5-20.5-7.1-35
			c-0.1-9-0.7-18.6-1.7-28.7c1.2-1,2.9-1.6,5.1-1.8c3-0.3,6,0,9.2,1.1c1.7,0.7,3.1,1.8,4,3.5c0.9,1.7,1.7,4.5,2.4,8.4
			c0.7,4,1.5,10.4,2.4,19.4l0.1,6l0.8,12.5c0.3,2.7,0.6,4.1,1,4.4c0.2,0.3,0.4,0.7,0.6,1.1c0.2,0.4,0.4,0.6,0.6,0.6
			c0.2,0,1.3-1.3,3.4-3.9l3.5-7.7c1.6-3.9,2.8-6.4,3.5-7.7c0.7-0.9,2-3.1,3.9-6.4l3.5-5.4c0.4-0.9,1.2-2.2,2.2-3.9
			c1.1-1.7,1.7-3,2-3.9c1.5-3.2,3.1-5.9,4.9-8.3c1.8-2.4,3-3.6,3.6-3.6c0.2,0.1,0.5,0.2,1,0.1c0.7-0.1,1.7-0.4,3.2-1.1
			c1.4-0.7,2.5-1.1,3.1-1.3c0.6-0.7,1.2-1.1,1.9-1.2c1-0.1,1.9,0.1,2.8,0.7c1.8,1.2,2.7,2.2,2.9,3.2c0.2,1.5-0.4,5.3-1.8,11.5
			c-1.4,6.2-2.6,9.6-3.7,10.2l-2.2,2.7c-0.3,2.2-2.9,7.8-8,16.9s-9.8,17-14.1,23.8c-1.4,2.3-3.1,4.5-5,6.6c-1.9,2-3.5,3.5-5,4.3
			C1593.5,753.7,1591.6,754.5,1589.5,754.8z"/>
		<path class="st19" d="M1642.2,725.6c-0.8-7.8,0.2-16.8,3.1-27.1c2.9-10.3,6.8-19.6,11.9-28.1c5.1-8.5,10.4-14.4,15.9-17.6
			c3-2,6.5-3.2,10.7-3.6c7.5-0.8,14.1,0.2,20,2.8c5.9,2.7,9.3,8.5,10.2,17.4c0.5,5.1-0.6,11-3.5,17.5c-2.8,6.5-6.6,12.1-11.4,16.9
			s-9.7,7.4-14.6,7.9c-7.5,0.8-14-1-19.7-5.2c-2.2,5.9-3.1,11.5-2.5,16.6c0.4,4.1,1.3,7.3,2.5,9.4c1.2,2.1,3.7,3,7.3,2.6
			c3.5-0.4,6.2-1.2,8.3-2.4c2-1.2,3.9-2.6,5.6-4.1c1.7-1.5,3-2.7,3.9-3.4l0.9-0.6l-0.2,0c2.8-2,4.9-3.5,6.2-4.5
			c1.3-1.1,2.5-1.8,3.4-2.2c2.5-0.3,4.9,0.2,7.2,1.5c2.3,1.3,3.6,3,3.8,5.1c0.2,1.7-1,4.5-3.6,8.5c-2.6,4-5.4,7-8.4,8.8l-2.8,1.8
			l0.2,0c-1.3,2.1-2.7,3.3-4.2,3.5l-2,0.2c-0.5,1.4-2.6,2.9-6.2,4.7c-3.6,1.7-7,2.7-10.4,3.1
			C1655.1,756.9,1644.5,747.2,1642.2,725.6z M1691.6,686.5c2.6-4.3,3.8-8.4,3.4-12.4c-0.2-1.8-0.8-3.4-1.9-4.8
			c-1.1-1.4-2.3-2-3.8-1.9c-2.8,0.3-5.8,2-9,5c-3.2,3-5.9,6.8-8.1,11.4l-2.7,5.6c0.6-0.4,1.1-0.6,1.4-0.7c1.3-0.1,2.4,0.3,3.2,1.4
			c0.8,1.1,1.6,2,2.5,2.7c0.9,0.7,2.3,1,4.1,0.8C1685.3,693.2,1688.9,690.8,1691.6,686.5z"/>
		<path class="st19" d="M1727.9,747.8c-1.5-2-2.4-5.1-2.9-9.3c-0.7-6.8-0.7-13.5-0.1-20.1l0-2c0.1-1,0.1-2.7,0.2-4.9
			c0.1-2.3,0.3-2.9,0.5-1.9l0.8-6.9c0.7-4.8,1.3-9.2,2-13.3c0.7-4.1,1.2-7.1,1.7-9l1.8-9c3.3-16.6,6.8-27.9,10.5-34
			c0.1-0.7,0.3-1.3,0.5-1.9c0.3-0.6,0.5-1.3,0.6-1.9c-0.3-2.6,0-4.8,0.8-6.4c1.2-2.6,2.2-5,3-7.1l0.7-2.8l5.5-14.9
			c0.3-1.7,1.2-3.6,2.5-5.8c1.4-2.2,2.8-3.6,4.4-4.5l-0.3-0.2c0.7-1.4,2.1-2.7,4.2-4c2.1-1.2,4-1.9,5.7-2.1c2.2-0.2,4,0.3,5.4,1.4
			c1.5,1.2,2.3,2.9,2.6,5.3l0.3,2.5c0.2,1.5,0.2,2.7,0,3.5c-0.2,0.9-0.6,1.9-1.3,3.2l0.2,0c0.2,0.1,0.1,0.7-0.2,1.7
			c-0.3,1-0.6,1.9-0.8,2.7c-0.8,3.1-1.5,4.9-2,5.2c-1,1.6-4.1,9-9.2,22.2c-5.2,13.2-8.4,22.3-9.7,27.3l-0.6,3.8l-0.3,1.5
			c-1.4,4.2-2.2,6.4-2.3,6.8l-2.4,15.8l-0.4,5.3l-1.6,6l-1,4.9c-0.2,0.9-0.4,2-0.5,3.3c-0.1,1.4-0.3,2.2-0.6,2.6l-0.1,1.3
			c-0.1,0.7-0.5,2.6-1.1,5.9c-1,4.8-1.7,8.8-2,11.9c-0.3,3.1-0.4,6.5-0.2,10l-0.1,1c-0.1,3.7-0.9,6.5-2.2,8.5
			c-1.4,2-3.4,2.8-5.9,2.4C1731.4,751.1,1729.3,749.8,1727.9,747.8z"/>
		<path class="st19" d="M1852.8,741.4c-2.5-2.7-3.8-5.3-4.1-8c-0.4-3.5,1.1-6.5,4.3-9c0.6-0.4,1.5-0.7,2.7-0.8
			c1.7-0.2,3.5-0.1,5.4,0.3c2,0.4,3.5,1,4.6,1.9c4.7,3.5,10.1,5,16,4.4c2.6-0.3,6.4-1.3,11.3-2.9c6.3-2.7,11.1-5.7,14.5-9.1
			c3.4-3.4,7.4-8.5,11.8-15.3c2.7-4.5,4.6-8.9,5.8-13.3c1.1-4.4,1.5-8.3,1.2-11.8c-0.4-3.8-1.6-6.7-3.7-8.7
			c-3.8-4.1-7.8-7.1-12.1-8.9c-4.3-1.8-9.2-2.4-14.6-1.9c-4.8,0.5-9.5,1.7-14,3.5l-14.1,4.5c-0.6,0.2-1.5,0.5-2.6,0.6
			c-1.1,0.2-2.3,2.8-3.8,7.8c-1.5,5-3.9,14.5-7.3,28.4c-2.5,10.1-4.6,17.5-6.5,21.9c-1.9,4.5-3.7,6.8-5.6,7c-2,0.2-4.3-1.4-7-4.8
			c-0.6-0.8-1.8-2.3-3.6-4.6c-1.8-2.3-2.9-4.6-3.1-7c-0.1-1.2,0.1-2.6,0.8-4.4c0.7-1.6,1.2-3.1,1.6-4.7c0.4-1.6,0.8-3.7,1.2-6.4
			c1.5-6.7,6.1-23.4,13.7-50.2c7.7-26.8,13.7-47,18.2-60.7c3.2-9.9,3.9-15,2.2-15.3c-0.1-0.5-0.4-1.2-1-2.2
			c-0.6-0.9-0.8-1.7-0.7-2.2c-0.1-1,2.7-2.8,8.4-5.4c5.7-2.6,9.6-3.9,11.8-3.7l1.5-0.2c2.2-0.2,3.2-0.7,3.1-1.6c0.3,0,1.8-0.4,4.5-1
			c2.7-0.6,5.6-0.9,8.8-0.9c11.9-0.2,21.5,2.1,28.9,7.2c7.4,5,11.6,13.1,12.6,24.2c0.1,4.3-1.7,10.5-5.4,18.4
			c-3.7,7.9-7.9,14.6-12.7,19.9c-2.4,2.6-5.2,5.4-8.3,8.3c-3.1,2.9-5.2,4.8-6.1,5.5l6.4,1.6c8.1,2.2,14.5,5.2,19.3,9
			c4.8,3.9,8.4,9.4,11,16.7c0.5,1.6,0.8,3.1,1,4.4c0.4,3.6,0.2,7.9-0.6,12.6c-0.8,4.8-1.7,9-2.8,12.6c-0.9,1.1-1.6,2.3-2.1,3.5
			c-0.5,1.2-0.9,2-1,2.4c-0.1,0.7-1.3,3.4-3.7,8.1c-2.4,4.7-4.5,8.5-6.4,11.3c-10,10.4-18.4,17.3-25.2,20.7
			c-6.6,3.9-14.8,6.3-24.4,7.3c-8.6,0.9-15.1,0.2-19.6-2C1858.7,746.5,1855.2,744.1,1852.8,741.4z M1880.2,640.5
			c4.9-1.6,8.3-2.9,10.4-4c0.3-0.2,1.3-0.8,2.9-1.9c1.6-1.1,3.3-2.6,4.9-4.7c9.4-10.9,15.8-20.4,19.1-28.6c3.4-7.2,5-12.3,4.7-15.1
			c-0.2-2-1.3-3.8-3.3-5.4c-3.5-3.3-8.9-4.6-16.2-3.8c-3.2,0.3-5.8,0.9-7.9,1.8c-2.3,0.9-3.9,1.9-4.8,2.9c-1,1-1.4,2.4-1.2,4.3
			c0.1,1.3-0.1,2.8-0.8,4.5c-0.7,1.7-1.4,3-2.3,4.1c-0.1,1-0.4,2.1-1.1,3.1c-0.6,1.1-1.1,1.8-1.4,2.2c0,0.3-0.8,2.7-2.7,7.1
			c-1.8,4.4-3.4,9.2-4.9,14.6c-3.7,12.3-5.5,19.7-5.2,22.2C1872.1,643.2,1875.3,642.1,1880.2,640.5z"/>
		<path class="st19" d="M1977.1,721.7c-3.5,0.4-6.6-1.3-9.3-5.1c-2.7-3.7-4.4-8.7-5.1-14.8c-0.3-3.3-0.4-6.6,0-9.8
			c1.3-5,1.9-8.6,1.6-10.7c0.2-3.2,1.3-9.1,3.3-17.6c2-8.5,3.4-13.6,4-15.4c0.7-0.1,1.2-0.7,1.6-1.8c0.4-1.1,0.5-2.4,0.4-3.7
			c-0.2-1.5,0-3.1,0.4-4.7c0.4-1.6,0.9-2.8,1.5-3.6c-0.1-0.5,0.1-1.4,0.3-2.8c0.3-1.4,0.4-2.3,0.3-2.8c0-0.3,0.1-1,0.4-1.9
			c0.3-1,0.5-1.7,0.4-2.2c2.1-5.4,5.5-17.5,10.3-36.1c4.7-18.7,7-29,6.8-31c-0.1-1.3,0.2-2.6,1.1-3.9c0.9-1.3,2-2,3.3-2.1
			c0.4-0.5,1.5-1,3.1-1.5c1.6-0.4,2.9-0.7,3.9-0.8l4.4,3.6c2,1.5,3.6,2.8,4.7,4c1.1,1.2,1.8,2.7,2,4.6c0.3,3,0.1,6-0.7,9
			c-0.8,3-3.2,10.2-7.2,21.5c-0.2,0.9-1.3,4-3,9.4c-1.3,3.5-1.9,5.5-1.9,6c0.1,0.5-0.2,1.6-0.7,3.2c-0.5,1.6-0.9,3.3-1.2,5
			c-1.1,2.8-2.7,7.7-4.9,14.7c-2.2,7-3.3,10.9-3.2,11.5c0.2,1.8-0.1,3.2-0.8,4.1c-0.5,0.1-0.8,0.5-0.9,1.2c-0.1,0.8-0.1,1.3-0.1,1.6
			c0.2,1.7-0.7,6.2-2.6,13.6l-1.5,7.4c-2,11.1-3.4,19.2-4.1,24.3c-0.7,5.1-0.9,9.4-0.5,12.9c0.4,3.6,0.1,6.7-0.8,9.1
			c-0.9,2.4-2.1,4.1-3.5,4.9C1978.6,721.5,1978,721.6,1977.1,721.7z"/>
		<path class="st19" d="M2032.3,714.8c-1.3-0.3-3.2-1.1-5.6-2.3c-3.9-2.4-7.3-5.6-10.2-9.5c-2.8-3.9-4.3-7.3-4.5-10.1
			c0.1-0.5,0.1-1.3,0-2.3c-0.1-1-0.3-1.8-0.5-2.3c-0.2-0.6-0.3-0.9-0.4-1.1c-0.7-0.4-1.1-0.8-1.2-1c-0.1-0.2-0.1-0.5,0.2-0.9
			c0.2-0.4,0.4-0.7,0.5-1.1c0.6-0.2,0.9-0.6,0.9-1.1s-0.3-1.1-0.7-1.7c-0.6-1.3-0.7-4.3-0.1-9.2c0.6-4.8,1.6-9.4,3-13.8
			c1-3.3,2.7-7.6,5.1-12.8c2.4-5.3,4.7-9.4,6.9-12.3c3.6-5.2,6.7-9.2,9.2-11.8c2.5-2.6,5.4-4.8,8.8-6.4c2.7-1.5,5.5-2.3,8.5-2.7
			c4-0.4,7.6,0.4,10.8,2.4c9.7,1.7,16,6.2,18.8,13.6c1.4,3.4,2.3,7.2,2.7,11.5c1,9.3-0.9,19.8-5.5,31.5c-2.5,6.6-5.1,12.1-7.7,16.5
			c-2.6,4.4-5.9,8.6-9.9,12.7c-2.7,2.8-6.4,5.5-11.1,8.1c-4.7,2.6-9,4.5-13.1,5.8C2035.3,715.1,2033.6,715.1,2032.3,714.8z
			 M2059.2,665.4c1-3,1.8-6.9,2.3-11.8c0.3-3.1,0.4-6.1,0.1-9.1c-0.6-5.3-1.6-8.1-3.1-8.5c-1.2-0.4-2.4-0.5-3.6-0.4
			c-3.5,0.4-6.9,3-10.2,7.9c-3.4,4.5-5.8,8.9-7.2,13.1c-1.4,4.2-2.8,10.8-4.2,19.8c-0.4,2.7-0.4,5.4-0.2,8.1
			c0.3,2.7,0.9,4.7,1.9,6.2c1,1.5,2.3,2.1,4,2c4.6-0.5,10-6.4,16-17.8C2056.8,671.5,2058.2,668.3,2059.2,665.4z"/>
		<path class="st19" d="M2114,749.5c-5.1-2.1-9.4-4.8-12.9-8.3c-3.5-3.5-5.5-6.8-5.8-9.9c-0.3-3.2,0.1-5.5,1.3-7
			c1.2-1.5,2.8-2.4,4.8-2.6c1.5-0.2,3.1,0.3,4.9,1.4c1.8,1.1,3.9,2.6,6.3,4.7c2.4,1.9,4.5,3.4,6.3,4.5c1.8,1.1,3.4,1.5,4.9,1.4
			c5.6-0.6,9.6-4.6,11.8-12c2.2-7.4,4.2-17.9,6-31.3l1.9-15.3l0.3-1.8c0-0.2-0.1-0.2-0.3-0.1c-0.2,0.1-0.3,0.1-0.5-0.1
			c-2.4,2.3-7.4,5.1-15,8.4c-7.5,3.3-13.9,5.2-19.3,5.8c-3.2,0.3-6.1-1-8.8-4.1c-2.8-3.1-4.4-7.2-5-12.6l-0.2-1.5
			c0.3-0.7,1.6-5.9,4.2-15.5c2.5-9.6,4.6-14.4,6.3-14.2c0.5-0.1,1.2-1.1,2.1-3.1c0.9-2,1.3-3.4,1.2-4c0.1-0.5,1-1.6,2.6-3.2
			c1.6-1.6,2.8-2.9,3.8-3.8l5.9-5.6c5.4-6.1,10.3-10.8,14.6-14c4.4-3.2,8.4-5.2,12.2-5.9l2.5,0c0.5-0.1,1.5-0.1,2.9-0.2
			c1.4-0.1,4,0.4,7.8,1.3c3.8,1.1,7.9,4.4,12.3,9.8c4.4,5.4,7,10.2,7.8,14.5c0.1,3.9-0.4,7.6-1.3,11.3c-1,3.7-2.1,5.6-3.4,5.8
			c-2.3,0.2-4,1-5,2.3c-1,1.3-1.9,3.3-2.6,6.1c-1.4,4-2.4,6.5-3,7.4l-2,19.6l-1.8,16.3c-1.2,8-2.6,14.8-4.1,20.5
			c-0.2,6.1-1.8,11.9-4.8,17.5c-3,5.6-6.7,10.2-11.1,13.9c-4.4,3.6-8.7,5.8-12.8,6.4C2124,752.4,2119.1,751.6,2114,749.5z
			 M2133,660.8c6.1-3.2,9.8-6,11.1-8.3c0.7-1.1,2.1-3.4,4.2-7.1c2-3.6,4.5-6.5,7.3-8.7c0.9-0.6,1.8-1.6,2.6-3c0.8-1.4,1.1-2.7,1-3.9
			l-0.1-0.5c-0.2-0.6-0.9-1.8-1.9-3.3c-1-1.6-2.4-3-4.1-4.3c-1.7-1.3-3.6-1.9-5.6-1.7c-1.6,0.5-5.2,3.9-10.6,10.2
			c-5.5,6.3-10.5,12.8-15,19.7c-4.6,6.8-6.7,11.5-6.5,14c0.2,1.8,1.4,2.6,3.8,2.4C2122.3,665.8,2126.9,664,2133,660.8z"/>
	</g>
</g>
<g id="Ebene_2">
</g>
</svg>
